<svg width="20" height="20" viewBox="0 0 20 20" fill="none" xmlns="http://www.w3.org/2000/svg">
<path d="M10 0C4.47729 0 0 4.47729 0 10C0 15.5227 4.47729 20 10 20C15.5227 20 20 15.5227 20 10C20 4.47729 15.5227 0 10 0ZM14.0342 9.54926C13.8867 9.69676 13.6938 9.7705 13.5009 9.7705C13.308 9.7705 13.115 9.69676 12.9676 9.54926L10.7546 7.33628V14.5027C10.7546 14.9192 10.4171 15.2572 10 15.2572C9.58289 15.2572 9.24543 14.9198 9.24543 14.5027V7.33628L7.03245 9.54926C6.88496 9.69676 6.69204 9.7705 6.49912 9.7705C6.30619 9.7705 6.11327 9.69676 5.96578 9.54926C5.67139 9.25487 5.67139 8.77699 5.96578 8.4826L9.37935 5.06903C9.51563 4.87257 9.74218 4.74336 10 4.74336C10.2578 4.74336 10.4844 4.87257 10.6206 5.06903L14.0342 8.4826C14.3286 8.77699 14.3286 9.25487 14.0342 9.54926Z" fill="#CDC8C2"/>
</svg>
