<svg width="40" height="40" viewBox="0 0 40 40" fill="none" xmlns="http://www.w3.org/2000/svg">
<path d="M28.8971 38.5892C28.1586 38.5892 27.4201 38.4106 26.7412 38.0533L20.9289 34.9922C20.3453 34.6826 19.6545 34.6826 19.0708 34.9922L13.2585 38.0533C11.6863 38.8751 9.82825 38.7441 8.39899 37.7078C6.96972 36.6716 6.267 34.9327 6.56476 33.1937L7.68435 26.7144C7.79155 26.0712 7.57716 25.4042 7.11265 24.9516L2.40798 20.3661C1.13355 19.1393 0.680948 17.317 1.22883 15.6376C1.77672 13.9582 3.20599 12.7552 4.95684 12.4932L11.46 11.5523C12.1032 11.457 12.6749 11.052 12.9607 10.4565L15.8669 4.56077C16.653 2.98858 18.2371 2 19.9999 2C21.7745 2 23.3586 2.98858 24.1328 4.57268L27.039 10.4684C27.3249 11.052 27.8966 11.4689 28.5397 11.5642L35.0429 12.5051C36.7938 12.7552 38.223 13.9582 38.7709 15.6495C39.3188 17.3289 38.8662 19.1393 37.6037 20.378L32.899 24.9636C32.4226 25.4162 32.2082 26.0831 32.3273 26.7263L33.4469 33.2057C33.7446 34.9446 33.0419 36.6835 31.6127 37.7198C30.8027 38.3034 29.8618 38.6011 28.909 38.6011L28.8971 38.5892ZM19.9999 4.62032C19.2257 4.62032 18.5587 5.03719 18.2133 5.728L15.3071 11.6237C14.6401 12.9815 13.3419 13.9344 11.8292 14.1488L5.32606 15.0897C4.56379 15.1969 3.95635 15.709 3.71814 16.4475C3.47993 17.186 3.6705 17.9482 4.21838 18.4842L8.92305 23.0698C10.0188 24.1298 10.5072 25.6544 10.2451 27.1551L9.12553 33.6344C8.99452 34.3967 9.29228 35.1233 9.91163 35.5878C10.5429 36.0404 11.329 36.0999 12.0079 35.7426L17.8202 32.6816C19.1661 31.9789 20.7741 31.9789 22.1199 32.6816L27.9323 35.7426C28.6231 36.0999 29.3973 36.0523 30.0286 35.5878C30.6598 35.1352 30.9457 34.4086 30.8147 33.6344L29.6951 27.1551C29.433 25.6544 29.9333 24.1298 31.029 23.0698L35.7337 18.4842C36.2935 17.9482 36.4841 17.174 36.234 16.4475C35.9957 15.709 35.3883 15.2088 34.626 15.0897L28.1229 14.1488C26.6221 13.9344 25.3239 12.9815 24.645 11.6237L21.7388 5.728C21.3934 5.03719 20.7264 4.62032 19.9522 4.62032H19.9999Z" fill="black"/>
</svg>
