<svg width="40" height="40" viewBox="0 0 40 40" fill="none" xmlns="http://www.w3.org/2000/svg">
<path d="M38.0792 16.955L23.8175 2.90825C23.2224 2.32216 22.4343 2 21.5909 2C20.7476 2 19.9595 2.32216 19.3644 2.90825L15.396 6.81294C14.801 7.39903 14.4739 8.17531 14.4739 9.00593C14.4739 9.83655 14.801 10.6128 15.396 11.1989L16.3418 12.1305L11.5853 16.8153H4.62982C3.56581 16.8153 2.61214 17.4402 2.2023 18.4106C1.79245 19.3809 2.01708 20.4871 2.76977 21.2285L8.00313 26.383L4.17269 33.9245C3.85742 34.5456 3.98353 35.2985 4.48007 35.7915C4.79533 36.102 5.21699 36.265 5.6426 36.265C5.89087 36.265 6.14308 36.2107 6.37558 36.0942L14.0325 32.3215L19.0176 37.2315C19.5142 37.7205 20.1723 37.9922 20.8777 37.9922C21.2284 37.9922 21.5673 37.9263 21.8786 37.7943C22.8638 37.3945 23.5022 36.4552 23.5022 35.4033V28.5527L28.2587 23.8678L29.6538 25.2418C30.2488 25.8279 31.037 26.1501 31.8803 26.1501C32.7237 26.1501 33.5118 25.8279 34.1069 25.2418L38.0752 21.3371C38.6703 20.7511 38.9974 19.9748 38.9974 19.1441C38.9974 18.3135 38.6703 17.5373 38.0752 16.9512L38.0792 16.955ZM36.6841 19.967L32.7158 23.8717C32.2705 24.3103 31.4941 24.3103 31.0488 23.8717L28.2627 21.1275L21.5358 27.7531V35.4072C21.5358 35.6712 21.3742 35.904 21.122 36.0088C20.8934 36.1059 20.5979 36.0438 20.4166 35.8652L4.1648 19.8583C3.97565 19.672 3.92048 19.3964 4.02294 19.1558C4.1254 18.9151 4.36184 18.756 4.62982 18.756H12.401L19.128 12.1305L16.7911 9.82879C16.33 9.37466 16.33 8.64108 16.7911 8.18695L20.7594 4.28226C21.2047 3.84367 21.9811 3.84367 22.4264 4.28226L36.6881 18.3291C37.1492 18.7832 37.1492 19.5168 36.6881 19.9709L36.6841 19.967Z" fill="black"/>
</svg>
