<svg width="20" height="20" viewBox="0 0 20 20" fill="none" xmlns="http://www.w3.org/2000/svg">
<path d="M8.66702 12.2191H6.40006C6.1127 12.2191 5.88281 12.4485 5.88281 12.7353V14.9975C5.88281 15.2843 6.1127 15.5137 6.40006 15.5137H8.66702C8.95438 15.5137 9.18426 15.2843 9.18426 14.9975V12.7353C9.18426 12.4485 8.95438 12.2191 8.66702 12.2191Z" fill="black"/>
<path d="M13.4717 12.2191H11.2047C10.9174 12.2191 10.6875 12.4485 10.6875 12.7353V14.9975C10.6875 15.2843 10.9174 15.5137 11.2047 15.5137H13.4717C13.7591 15.5137 13.989 15.2843 13.989 14.9975V12.7353C13.989 12.4485 13.7591 12.2191 13.4717 12.2191Z" fill="black"/>
<path d="M17.605 2.95343H14.8591V1.25833C14.8591 0.837745 14.5142 0.5 14.0992 0.5C13.6841 0.5 13.3329 0.844118 13.3329 1.25833V2.95343H6.53839V1.25833C6.53839 0.837745 6.19355 0.5 5.77848 0.5C5.3634 0.5 5.01857 0.844118 5.01857 1.25833V2.95343H2.25991C1.83845 2.95343 1.5 3.29755 1.5 3.71814V19.2417C1.5 19.6623 1.84483 20 2.26629 20H17.605C18.0264 20 18.3649 19.6623 18.3649 19.2417V3.71814C18.3649 3.29755 18.02 2.9598 17.605 2.9598V2.95343ZM16.8387 9.40882V18.324C16.8387 18.4069 16.7684 18.477 16.6854 18.477H3.17946C3.09645 18.477 3.0262 18.4069 3.0262 18.324V9.40882C3.0262 9.32598 3.09645 9.25588 3.17946 9.25588H16.6918C16.7748 9.25588 16.845 9.32598 16.845 9.40882H16.8387ZM16.8387 4.62941V7.5799C16.8387 7.66274 16.7684 7.73284 16.6854 7.73284H3.17946C3.09645 7.73284 3.0262 7.66912 3.0262 7.5799V4.62941C3.0262 4.54657 3.09645 4.47647 3.17946 4.47647H16.6918C16.7748 4.47647 16.845 4.5402 16.845 4.62941H16.8387Z" fill="black"/>
</svg>
