<svg width="30" height="30" viewBox="0 0 30 30" fill="none" xmlns="http://www.w3.org/2000/svg">
<path d="M29.7328 2.07628L24.6166 25.8476C24.5077 26.3647 24.1675 26.8001 23.6913 27.0314C23.215 27.2627 22.6708 27.2627 22.1809 27.0314L18.371 25.1809C18.371 25.1809 13.4997 28.7051 12.5064 29.1677C12.3159 29.2629 12.2343 29.2493 12.0982 29.2493C11.9077 29.2493 11.7036 29.1949 11.5403 29.086C11.2546 28.8955 11.0777 28.5826 11.0777 28.2424V21.0171C11.0641 20.8675 11.0777 20.7178 11.1593 20.5681C11.1956 20.5046 11.1956 20.5046 11.1593 20.5681C11.0777 20.7178 11.1729 20.5409 11.1865 20.5273C11.1865 20.5273 11.2682 20.3912 11.3226 20.3232L23.8546 6.60739L8.27464 19.4251C8.15217 19.5476 7.98889 19.6564 7.812 19.6973C7.52625 19.7789 7.21329 19.7245 6.96837 19.5612L1.7297 17.1936C1.1446 16.9078 0.777214 16.3363 0.75 15.6832C0.75 15.0437 1.07657 14.445 1.64806 14.132L27.2291 0.212129C27.8278 -0.114438 28.5354 -0.0600102 29.0932 0.348198C29.6375 0.756406 29.8824 1.42315 29.7464 2.07628H29.7328Z" fill="white"/>
</svg>
