<svg width="40" height="40" viewBox="0 0 40 40" fill="none" xmlns="http://www.w3.org/2000/svg">
<path d="M38.5722 24.1706C37.648 25.0759 36.4183 25.5689 35.1144 25.5689H25.4095C24.807 25.5689 24.3201 26.0458 24.3201 26.6358V35.1792C24.3201 36.731 22.9585 38 21.2914 38C20.2846 38 19.3851 37.5231 18.8735 36.7149L11.1656 24.6718C10.5714 23.7423 10.2578 22.6753 10.2578 21.5842V4.77234C10.2578 3.38213 11.4132 2.25056 12.8326 2.25056H34.1654C37.3756 2.25056 39.9917 4.81276 39.9917 7.95689V20.7759C39.9917 22.053 39.4883 23.2573 38.564 24.1625L38.5722 24.1706Z" fill="#646464"/>
<path d="M5.51701 24H1.4898C0.693878 24 0.0408163 23.1009 0.0408163 21.9993L0 4.04934C0 2.94772 0.646258 2.0405 1.44218 2.0324L5.5102 2H5.52381C5.91837 2 6.28571 2.2106 6.56463 2.59131C6.84354 2.98012 7 3.49043 7 4.04124V21.9588C7 23.0847 6.34014 24 5.52381 24H5.51701Z" fill="#646464"/>
</svg>
