<svg width="40" height="40" viewBox="0 0 40 40" fill="none" xmlns="http://www.w3.org/2000/svg">
<path d="M26.7412 38.0533C27.4201 38.4106 28.1586 38.5892 28.8971 38.5892L28.909 38.6011C29.8618 38.6011 30.8027 38.3034 31.6127 37.7198C33.0419 36.6835 33.7446 34.9446 33.4469 33.2057L32.3273 26.7263C32.2082 26.0831 32.4226 25.4162 32.899 24.9636L37.6037 20.378C38.8662 19.1393 39.3188 17.3289 38.7709 15.6495C38.223 13.9582 36.7938 12.7552 35.0429 12.5051L28.5397 11.5642C27.8966 11.4689 27.3249 11.052 27.039 10.4684L24.1328 4.57268C23.3586 2.98858 21.7745 2 19.9999 2C18.2371 2 16.653 2.98858 15.8669 4.56077L12.9607 10.4565C12.6749 11.052 12.1032 11.457 11.46 11.5523L4.95684 12.4932C3.20599 12.7552 1.77672 13.9582 1.22883 15.6376C0.680948 17.317 1.13355 19.1393 2.40798 20.3661L7.11265 24.9516C7.57716 25.4042 7.79155 26.0712 7.68435 26.7144L6.56476 33.1937C6.267 34.9327 6.96972 36.6716 8.39899 37.7078C9.82825 38.7441 11.6863 38.8751 13.2585 38.0533L19.0708 34.9922C19.6545 34.6826 20.3453 34.6826 20.9289 34.9922L26.7412 38.0533Z" fill="#EA1917"/>
</svg>
