<svg width="24" height="24" viewBox="0 0 24 24" fill="none" xmlns="http://www.w3.org/2000/svg">
<path d="M15.002 19.5078C14.7968 19.5078 14.6203 19.3674 14.5726 19.164L13.6326 15.407C13.4799 14.8067 13.0267 14.3322 12.435 14.1676L8.72766 13.1315C8.53204 13.0734 8.39844 12.8943 8.39844 12.6861C8.39844 12.4779 8.54158 12.3036 8.7372 12.2504L12.435 11.3014C13.0267 11.1465 13.4943 10.6866 13.6565 10.0862L14.6823 6.33406C14.7348 6.13556 14.9114 6 15.1118 6C15.3122 6 15.4887 6.13556 15.5412 6.33406L16.4764 10.0862C16.6243 10.6866 17.0823 11.161 17.674 11.3256L21.3813 12.3617C21.577 12.415 21.7153 12.599 21.7106 12.8071C21.7106 13.0153 21.5722 13.1945 21.3718 13.238L17.674 14.187C17.0823 14.3419 16.6147 14.8018 16.4477 15.4022L15.4267 19.164C15.3742 19.3625 15.2024 19.5029 15.002 19.5029V19.5078Z" fill="#EA1917"/>
<path d="M6.10102 11.1722C5.89585 11.1722 5.71931 11.0318 5.6716 10.8285L5.27557 9.24044C5.15629 8.75145 4.77935 8.36897 4.30221 8.23341L2.72766 7.79284C2.53204 7.73958 2.39844 7.56044 2.39844 7.35226C2.39844 7.14407 2.54158 6.96494 2.7372 6.91652L4.30221 6.51468C4.78412 6.3888 5.16106 6.01116 5.29466 5.52701L5.72885 3.92932C5.78134 3.73566 5.95788 3.6001 6.15828 3.6001C6.36345 3.6001 6.53999 3.7405 6.59247 3.94384L6.9885 5.53186C7.10778 6.02085 7.48472 6.40333 7.96186 6.53889L9.53641 6.97946C9.73204 7.03272 9.87041 7.2167 9.86563 7.42488C9.86563 7.63307 9.72726 7.8122 9.52687 7.86062L7.96186 8.26246C7.47995 8.3835 7.09824 8.76114 6.96464 9.25013L6.53045 10.8478C6.47796 11.0463 6.30142 11.1819 6.10102 11.1819V11.1722Z" fill="#EA1917"/>
</svg>
