<svg width="40" height="40" viewBox="0 0 40 40" fill="none" xmlns="http://www.w3.org/2000/svg">
<path d="M38.5722 15.8294C37.648 14.9241 36.4183 14.4311 35.1144 14.4311H25.4095C24.807 14.4311 24.3201 13.9542 24.3201 13.3642V4.82084C24.3201 3.26897 22.9585 2 21.2914 2C20.2846 2 19.3851 2.47687 18.8735 3.28514L11.1656 15.3282C10.5714 16.2577 10.2578 17.3247 10.2578 18.4158V35.2277C10.2578 36.6179 11.4132 37.7494 12.8326 37.7494H34.1654C37.3756 37.7494 39.9917 35.1872 39.9917 32.0431V19.2241C39.9917 17.947 39.4883 16.7427 38.564 15.8375L38.5722 15.8294Z" fill="#EA1917"/>
<path d="M5.51701 16H1.4898C0.693878 16 0.0408163 16.8991 0.0408163 18.0007L0 35.9507C0 37.0523 0.646258 37.9595 1.44218 37.9676L5.5102 38H5.52381C5.91837 38 6.28571 37.7894 6.56463 37.4087C6.84354 37.0199 7 36.5096 7 35.9588V18.0412C7 16.9153 6.34014 16 5.52381 16H5.51701Z" fill="#EA1917"/>
</svg>
