<svg width="30" height="30" viewBox="0 0 30 30" fill="none" xmlns="http://www.w3.org/2000/svg">
<circle cx="15" cy="15" r="15" fill="#EA1917"/>
<path d="M22.4983 19.2303V18.5413C22.4983 18.5413 22.4983 18.5399 22.4983 18.5393C22.4983 18.5387 22.4983 18.5379 22.4983 18.5373V14.1859C22.4983 13.9509 22.5021 13.7139 22.4925 13.477C22.4599 12.6585 22.3083 11.84 22.0261 11.0752C21.4562 9.52985 20.4467 8.20751 19.1186 7.28745C17.8174 6.38531 16.2245 5.92926 14.6623 6.00892C13.3112 6.07862 11.9793 6.5267 10.8585 7.31732C9.76269 8.09201 8.85109 9.15346 8.27342 10.3942C7.78192 11.4484 7.52725 12.5834 7.50729 13.7514C7.50269 13.7815 7.5 13.8121 7.5 13.8434V18.4955C7.5 18.836 7.60939 19.1487 7.83202 19.4016C8.07959 19.6804 8.43079 19.784 8.78392 19.784H10.16C10.373 19.784 10.5879 19.7879 10.7952 19.7222C11.2903 19.5669 11.7126 19.1347 11.8181 18.601C11.8853 18.2645 11.8584 17.902 11.8584 17.5595V14.7794C11.8584 14.7794 11.8584 14.779 11.8584 14.7788C11.8584 14.7784 11.8584 14.778 11.8584 14.7774C11.8584 14.7746 11.8582 14.772 11.8582 14.7692C11.8582 14.7619 11.8578 14.7547 11.8575 14.7475C11.8365 14.0939 11.4408 13.5552 10.8566 13.3276C10.6359 13.242 10.3999 13.2459 10.1696 13.2459H8.6822C8.69007 13.1348 8.70063 13.0239 8.71406 12.9132C8.79448 12.3631 8.93592 11.8246 9.13589 11.3084C9.26908 10.9858 9.42358 10.6744 9.59976 10.3742C9.69188 10.2169 9.79167 10.0616 9.89531 9.91221C9.92026 9.87637 9.9452 9.84052 9.97015 9.80667C9.9763 9.7977 9.98301 9.78894 9.98973 9.77998C10.0394 9.71586 10.0895 9.65173 10.141 9.5876C10.3636 9.31278 10.6073 9.05588 10.8683 8.8169C10.9278 8.76114 10.9892 8.70737 11.0526 8.65559C11.0852 8.62771 11.1178 8.59983 11.1504 8.57394C11.1526 8.57215 11.155 8.56996 11.1575 8.56797C11.1458 8.57713 11.1314 8.58828 11.114 8.60182C11.1295 8.59007 11.1441 8.57852 11.1591 8.56677C11.1875 8.54347 11.2307 8.51081 11.1765 8.55323C11.3143 8.44609 11.4579 8.34273 11.6034 8.24535C11.926 8.03186 12.2632 7.84646 12.6144 7.68853C13.1091 7.48321 13.6262 7.33724 14.1545 7.25419C14.7243 7.1809 15.3004 7.1831 15.8718 7.25618C16.4059 7.34042 16.9273 7.48819 17.4276 7.6967C17.7335 7.83311 18.0293 7.99243 18.3128 8.17147C18.4567 8.26307 18.5987 8.36066 18.7369 8.46421C18.7695 8.48811 18.8021 8.51201 18.8328 8.5379C18.8434 8.54666 18.8545 8.55522 18.8655 8.56379C18.9298 8.61636 18.9927 8.66894 19.0555 8.7231C19.3165 8.95212 19.5621 9.20305 19.7886 9.46792C19.8442 9.53364 19.898 9.59935 19.9517 9.66706C19.9734 9.69494 19.9953 9.72263 20.017 9.75051C20.0273 9.76504 20.0394 9.78197 20.0438 9.78854C20.1475 9.93193 20.2473 10.0813 20.3413 10.2326C20.5447 10.5638 20.7225 10.9119 20.8716 11.2732C21.0712 11.7884 21.2118 12.3243 21.2924 12.8731C21.3072 12.9982 21.3189 13.1237 21.3274 13.2497H19.6907C19.2512 13.2497 18.806 13.4071 18.5162 13.7655C18.282 14.0563 18.1477 14.3988 18.1419 14.7812V18.1806C18.1419 18.6148 18.2782 19.037 18.5834 19.3456C18.8444 19.6085 19.1668 19.7419 19.5237 19.7798C19.6024 19.7877 19.6811 19.7858 19.7598 19.7858H20.6618C20.871 19.7858 21.0802 19.7897 21.2875 19.7858C21.3065 19.7854 21.3255 19.7846 21.3443 19.7834C21.3414 19.8774 21.3356 19.971 21.3262 20.0644C21.2882 20.2998 21.228 20.53 21.1454 20.752C21.0698 20.9257 20.9817 21.0928 20.8808 21.2517C20.852 21.2955 20.8232 21.3373 20.7944 21.3791C20.7921 21.3825 20.79 21.3857 20.7879 21.3885C20.7827 21.3939 20.7781 21.3989 20.7752 21.403C20.7081 21.4867 20.639 21.5663 20.5641 21.644C20.4931 21.7177 20.4183 21.7874 20.3415 21.8551C20.3308 21.8639 20.32 21.8728 20.3091 21.8822C20.2718 21.9101 20.2346 21.9391 20.1956 21.9666C20.0429 22.0736 19.8794 22.1676 19.7105 22.246C19.4938 22.3339 19.2689 22.3988 19.0388 22.4376C18.758 22.4691 18.4742 22.4585 18.192 22.4585H16.9313C16.9127 22.4093 16.891 22.3607 16.8659 22.3131C16.6414 21.883 16.1961 21.6261 15.7298 21.6221C15.4899 21.6201 15.25 21.6221 15.0081 21.6221C14.7663 21.6221 14.5168 21.6201 14.2712 21.6221C13.8068 21.6241 13.3653 21.877 13.137 22.3012C13.0218 22.5163 12.9719 22.7513 12.9719 22.9962C12.9719 23.2013 12.9758 23.4065 13.0448 23.5996C13.231 24.1214 13.6935 24.4779 14.2309 24.4938C14.7145 24.5077 15.202 24.4938 15.6856 24.4938H15.705C15.7161 24.4952 15.7276 24.496 15.7393 24.4958C16.2698 24.488 16.7293 24.1576 16.9321 23.6554H17.9118C18.4031 23.6554 18.8906 23.6713 19.3781 23.5857C20.1707 23.4443 20.9307 23.0022 21.4719 22.3888C22.063 21.7217 22.4065 20.8872 22.4852 19.9871C22.5063 19.7362 22.4986 19.4813 22.4986 19.2303H22.4983ZM20.0264 9.76285C20.0417 9.78277 20.0839 9.84052 20.0264 9.76285V9.76285Z" fill="white"/>
</svg>
