<svg width="40" height="40" viewBox="0 0 40 40" fill="none" xmlns="http://www.w3.org/2000/svg">
<path d="M4.02426 1.72306C1.79879 1.72306 0 3.52185 0 5.74732V20.2045C0 22.4217 1.80715 24.2288 4.02426 24.2288H10.2573L17.4524 35.7243C18.4229 37.2721 20.1631 38.1422 22.0205 37.9832C24.5555 37.7574 26.4212 35.4984 26.4212 32.955V26.9395H34.4363C35.7498 26.9395 37.055 26.5463 38.0673 25.7013C39.3056 24.6639 40 23.1746 40 21.585V8.40785C40 4.71825 37.0048 1.72306 33.3152 1.72306H4.02426ZM21.5018 35.214C20.7823 35.214 20.1297 34.8626 19.7616 34.2769L12.3656 22.4802V4.44215H33.3152C35.4988 4.44215 37.2809 6.22421 37.2809 8.40785V21.585C37.2809 23.0408 36.1012 24.2204 34.6538 24.2204H25.0743C24.3213 24.2204 23.7189 24.8312 23.7189 25.5758V33.1474C23.7189 34.2936 22.7316 35.2223 21.5101 35.2223L21.5018 35.214ZM4.07446 4.49236L9.64652 4.45052V21.5097H4.13303C3.38005 21.5097 2.76929 20.899 2.76929 20.146L2.7191 5.85609C2.7191 5.1031 3.32148 4.49235 4.07446 4.48399V4.49236Z" fill="black"/>
</svg>
