<svg width="20" height="20" viewBox="0 0 20 20" fill="none" xmlns="http://www.w3.org/2000/svg">
  <path
    d="M14.6317 5.00057C14.2863 5.01127 13.9586 5.15045 13.7194 5.38811C11.6467 7.39647 10.048 9.08153 8.14802 10.9614L6.21708 9.38128C5.67234 8.90596 4.83088 8.94878 4.3415 9.47763C3.84991 10.0043 3.89419 10.818 4.44115 11.2912C4.46108 11.3083 4.48101 11.3254 4.50315 11.3404L7.38185 13.6956C7.90887 14.1281 8.69276 14.096 9.17993 13.6228C11.5692 11.3083 13.2677 9.46265 15.6016 7.19949C16.1264 6.70275 16.1331 5.88913 15.6193 5.38169C15.3603 5.13118 15.0015 4.98986 14.6317 5.00057Z"
    fill="#ffffff" />
</svg>