<svg width="40" height="40" viewBox="0 0 40 40" fill="none" xmlns="http://www.w3.org/2000/svg">
<g clip-path="url(#clip0_700_5140)">
<path d="M9.16312 28.8778C8.71539 28.8778 8.27718 28.7181 7.93424 28.4315C7.93424 28.4315 1.66124 23.202 1.63266 23.1738C1.25161 22.8356 1.02774 22.3751 0.999166 21.8724C0.970588 21.3696 1.14206 20.8904 1.485 20.5145C1.847 20.1198 2.36141 19.8896 2.90441 19.8896C3.37595 19.8896 3.82845 20.0587 4.17615 20.3735L9.02975 24.4236L9.64895 23.7987C11.3351 22.0932 12.9307 20.444 14.474 18.8512C16.7031 16.5442 19.0037 14.1668 21.6234 11.5732C21.9806 11.2161 22.4474 11.0141 22.9428 11H23.0047C23.5048 11 24.0002 11.2067 24.3574 11.5638C24.7146 11.9209 24.9099 12.3955 24.9052 12.8982C24.9052 13.4009 24.6956 13.8708 24.3336 14.2232C21.833 16.6946 19.6419 18.9734 17.5176 21.177L17.4509 21.2475C15.298 23.4839 13.0736 25.7956 10.5111 28.3281C10.1491 28.6852 9.67277 28.8825 9.16312 28.8825V28.8778Z" fill="white"/>
<path d="M37.7429 16.3518H29.5075C28.812 16.3518 28.25 15.7222 28.25 14.9423C28.25 14.1623 28.812 13.5327 29.5075 13.5327H37.7429C38.4383 13.5327 39.0003 14.1623 39.0003 14.9423C39.0003 15.7222 38.4383 16.3518 37.7429 16.3518Z" fill="white"/>
<path d="M37.7429 22.676H24.7301C24.0347 22.676 23.4727 22.0464 23.4727 21.2665C23.4727 20.4865 24.0347 19.8569 24.7301 19.8569H37.7429C38.4383 19.8569 39.0004 20.4865 39.0004 21.2665C39.0004 22.0464 38.4383 22.676 37.7429 22.676Z" fill="white"/>
<path d="M37.7442 28.9998H18.6442C17.9488 28.9998 17.3867 28.3702 17.3867 27.5902C17.3867 26.8103 17.9488 26.1807 18.6442 26.1807H37.7442C38.4396 26.1807 39.0017 26.8103 39.0017 27.5902C39.0017 28.3702 38.4396 28.9998 37.7442 28.9998Z" fill="white"/>
</g>
<defs>
<clipPath id="clip0_700_5140">
<rect width="38" height="18" fill="white" transform="translate(1 11)"/>
</clipPath>
</defs>
</svg>
