<svg width="40" height="40" viewBox="0 0 40 40" fill="none" xmlns="http://www.w3.org/2000/svg">
<path d="M4.02426 38.2769C1.79879 38.2769 0 36.4782 0 34.2527V19.7955C0 17.5783 1.80715 15.7712 4.02426 15.7712H10.2573L17.4524 4.27569C18.4229 2.7279 20.1631 1.85779 22.0205 2.01675C24.5555 2.24264 26.4212 4.50159 26.4212 7.04499V13.0605H34.4363C35.7498 13.0605 37.055 13.4537 38.0673 14.2987C39.3056 15.3361 40 16.8254 40 18.415V31.5921C40 35.2818 37.0048 38.2769 33.3152 38.2769H4.02426ZM21.5018 4.78605C20.7823 4.78605 20.1297 5.13744 19.7616 5.72309L12.3656 17.5198V35.5578H33.3152C35.4988 35.5578 37.2809 33.7758 37.2809 31.5921V18.415C37.2809 16.9592 36.1012 15.7796 34.6538 15.7796H25.0743C24.3213 15.7796 23.7189 15.1688 23.7189 14.4242V6.85256C23.7189 5.70635 22.7316 4.77768 21.5101 4.77768L21.5018 4.78605ZM4.07446 35.5076L9.64652 35.5495V18.4903H4.13303C3.38005 18.4903 2.76929 19.101 2.76929 19.854L2.7191 34.1439C2.7191 34.8969 3.32148 35.5076 4.07446 35.516V35.5076Z" fill="#646464"/>
</svg>
