<svg width="24" height="24" viewBox="0 0 24 24" fill="none" xmlns="http://www.w3.org/2000/svg">
<g clip-path="url(#clip0_700_4911)">
<path d="M2.48858 20.3572C2.32361 20.687 2.3896 21.0869 2.64942 21.3486C2.81438 21.5135 3.03502 21.6001 3.25773 21.6001C3.38764 21.6001 3.51961 21.5712 3.64127 21.5094L8.39844 19.1308L4.86613 15.6001L2.48858 20.3572Z" fill="#EA1917"/>
<path d="M22.4216 10.5873L13.8709 2.17344C13.3653 1.67591 12.543 1.67591 12.0374 2.17344L9.65814 4.51464C9.15252 5.01217 9.15252 5.82124 9.65814 6.31877L10.641 7.28594L7.19855 10.6733H2.78499C2.38805 10.6733 2.02892 10.9105 1.87534 11.2708C1.72413 11.6312 1.80682 12.0497 2.08799 12.3264L11.8342 21.9167C12.0232 22.1026 12.2737 22.2003 12.5312 22.2003C12.6588 22.2003 12.7864 22.177 12.9069 22.1259C13.2755 21.9771 13.5141 21.6237 13.5141 21.2308V16.8855L16.9566 13.4981L18.2088 14.7303C18.7145 15.2279 19.5367 15.2279 20.0423 14.7303L22.4216 12.3891C22.9272 11.8916 22.9272 11.0825 22.4216 10.585V10.5873Z" fill="#EA1917"/>
</g>
<defs>
<clipPath id="clip0_700_4911">
<rect width="22.2" height="21.6" fill="white" transform="translate(1.19922 1.2002)"/>
</clipPath>
</defs>
</svg>
